<?xml version="1.0" encoding="utf-8"?>
<!-- Generator: Adobe Illustrator 18.1.1, SVG Export Plug-In . SVG Version: 6.00 Build 0)  -->
<svg version="1.1" id="Layer_1" xmlns="http://www.w3.org/2000/svg" xmlns:xlink="http://www.w3.org/1999/xlink" x="0px" y="0px"
	 width="120.2px" height="43px" viewBox="0 0 120.2 43" style="enable-background:new 0 0 120.2 43;" xml:space="preserve">
<style type="text/css">
	.st0{fill:#B68E3E;}
	.st1{fill-rule:evenodd;clip-rule:evenodd;fill:#DEE7ED;}
	.st2{fill:#FFFFFF;}
	.st3{fill:#ECEAE9;}
</style>
<path class="st0" d="M110.2,34.8c0.8,0,1.5-0.7,1.5-1.5V9c0-0.8-0.7-1.5-1.5-1.5H85.9c-0.8,0-1.5,0.7-1.5,1.5v24.3
	c0,0.8,0.7,1.5,1.5,1.5H110.2z"/>
<path class="st0" d="M73.2,34.8c0.8,0,1.5-0.7,1.5-1.5V9c0-0.8-0.7-1.5-1.5-1.5H48.9c-0.8,0-1.5,0.7-1.5,1.5v24.3
	c0,0.8,0.7,1.5,1.5,1.5H73.2z"/>
<g>
	<g>
		<g>
			<path class="st1" d="M100,27c0,0.5,0.1,1.7-0.2,2.1c-0.1,0.2-0.4,0.3-0.5,0.1C99,28.7,99.6,27.2,100,27L100,27z M99.6,23.8
				c0.3-0.1,0.4,0.2,0.4,0.4c0,0.3-0.1,0.5-0.1,0.8c-0.1,1.2-0.8,1.8-0.9,0.9C99,25.3,99.1,24,99.6,23.8L99.6,23.8z M97,23.9
				c0.4-0.1,0.5,0.5,0.5,0.6c0,0.2-0.1-0.1-0.1,0.5c0,0.3-0.1,0.8-0.2,1.1c-0.1,0.2-0.5,0.6-0.6-0.2C96.3,25.4,96.4,24,97,23.9
				L97,23.9z M95.1,22.1C95,22,94.7,22,94.5,22c-0.1,0.3,0,0.7-0.1,1c0,0.3-0.1,0.2-0.3,0.2c-0.2,0-0.4,0-0.5,0.1
				c0,0.3,0.6,0.3,0.8,0.4c0,0.8-0.2,1.8,0.1,2.6c0.1,0.3,0.4,0.7,0.8,0.5c0.3-0.1,0.4-0.6,0.6-0.8c0.2,0.7,0.2,0.7,0.8,0.9
				c0.4,0.1,0.7-0.5,0.8-0.9c0.1,0.2,0,0.2,0.2,0.4c0.1,0.1,0.2,0.2,0.3,0.2c0.4,0.1,0.5-0.2,0.7-0.3l0,0c0.1,0.5,0.4,0.5,0.7,0.6
				c0.4,0.1,0.5-0.4,0.7-0.6c0,0.9,0,0.5-0.3,0.9c-0.1,0.1-0.2,0.2-0.3,0.3c-0.4,0.5-1,1.9-0.2,2.3c0.2,0.1,0.7,0.2,1,0.1
				c0.2-0.1,0.3-0.4,0.4-0.7c0.1-0.7,0-1.4,0.1-2.1c0.2,0,0.3,0.1,0.4-0.1c0-0.2-0.2-0.2-0.4-0.2c0-0.3,0-0.6,0-1
				c0-0.7,0.1-0.6,0.1-0.8c-0.1-0.1-0.1,0-0.1-0.1c-0.1,0-0.1,0-0.1-0.1c-0.1-0.2,0.1-0.6-0.1-0.9c-0.2-0.3-0.4-0.2-0.7-0.3
				c-0.6-0.3-0.9,0.4-1,0.9c-0.2,0.9,0,1.5-0.3,1.8c-0.3,0.3-0.4-0.2-0.4-0.5c0-0.9,0.3-0.9-0.1-1.1c-0.1-0.4,0.1-0.7-0.2-1
				c-0.1-0.1-0.3-0.1-0.4-0.2c-0.2-0.1-0.3-0.1-0.5-0.1c-0.6,0.1-0.7,1.2-0.8,1.7c0,0.2,0-0.1-0.2,0.5c-0.2,0.8-0.6,1.1-0.7,0.5
				c-0.1-0.3,0-2.1,0-2.4c0.1-0.1,0.7-0.1,0.8-0.1c0.1,0,0.2,0.1,0.2,0c0.3-0.3-0.9-0.3-1.1-0.3L95.1,22.1z"/>
			<path class="st1" d="M104,23.9c0.4-0.1,0.5,0.4,0.5,0.6c0,0.2,0,0.1-0.1,0.2c-0.1,0.2,0,1.5-0.5,1.7c-0.5,0.3-0.5-0.9-0.5-1.2
				C103.5,24.7,103.6,24,104,23.9L104,23.9z M101,23.6c0,0.4,0,0.8,0,1.2c0,0.2,0,0.4,0,0.6c0,0.1-0.1,0.4-0.1,0.5
				c0.3,0.1,0.3-0.4,0.4-0.6c0-0.2,0.1-0.7,0.1-0.9c0,0,0.1,0,0.2,0c0.3,0,0.1,0.5,0.1,1.1c0,0.5,0.2,1.5,0.9,1.3
				c0.3-0.1,0.4-0.4,0.5-0.6c0.1,0.2,0.1,0.6,0.5,0.7c0.4,0.1,0.6,0.2,0.9-0.5c0-0.1,0-0.1,0.1-0.1c0,0,0,0,0-0.1c0,0,0,0,0-0.1
				c0,0.3,0.2,0.6,0.6,0.6c0.3,0,0.5-0.3,0.6-0.5c0,0.2,0,0.5,0.1,0.6c0.1,0.1,0.5,0.1,0.6,0c0.1-0.1,0.1-0.3,0.1-0.5
				c0-0.2,0-0.3,0.1-0.5c0-0.1,0.1-0.7,0.2-0.8c0.1,0.5-0.1,1.4,0.2,1.6c0.1,0,0.2,0,0.3,0c0.3,0,0.2-0.1,0.3-0.6
				c0.1-0.3,0.3-1,0.5-1.2c0,0.4-0.1,0.7,0,1.2c0.2,0.8,0.9,1,1.3,0.3c0.1-0.1,0.4-0.8,0.2-1c-0.2-0.2-0.2,0.5-0.4,0.8
				c-0.1,0.1-0.3,0.3-0.4,0.1c-0.1-0.1-0.1-0.4-0.1-0.6c0-1.3,0.4-1.3,0-1.6c-0.2-0.1-0.3-0.1-0.5-0.1c-0.1,0.1-0.6,1.5-0.7,1.7
				c0,0,0,0,0,0c0-0.3,0-0.7,0-1c0-0.2,0-0.3-0.1-0.4c-0.1-0.1-0.3-0.1-0.4-0.1c-0.2,0-0.3,0.4-0.4,0.6c0,0.1-0.2,0.6-0.2,0.7l0-1.7
				c-0.1-0.1-0.4-0.2-0.6-0.1c0,0.1,0,1,0,1.2c0,0.3,0,0.4-0.1,0.6c-0.1,0.1-0.1,0.3-0.1,0.5c-0.2,0.4-0.5,0.4-0.5-0.1
				c0-0.2,0-0.4,0-0.6c0-0.2,0.1-0.4,0.1-0.5c-0.1-0.1-0.1-0.1-0.2-0.1c0-0.3,0-0.6-0.1-0.8c-0.1-0.3-0.2-0.2-0.5-0.4
				c-0.2-0.1-0.4-0.2-0.7-0.1c-0.2,0.1-0.3,0.2-0.4,0.5c-0.1,0.2-0.2,0.4-0.2,0.7c0,0.2,0,0.6-0.1,0.8c-0.1,0.3-0.2,1.2-0.6,1.2
				c-0.2-0.2-0.2-0.8-0.2-1.1c0-0.2,0-0.4,0.1-0.6c0-0.2,0.1-0.4,0.1-0.5c-0.2-0.3-0.7-0.1-0.9-0.3c0-0.2,0-0.3,0-0.4
				C101.3,23.4,101.1,23.5,101,23.6z"/>
			<path class="st1" d="M92.4,25.9c0.1-0.3,0.1-0.4,0.1-0.7c0.2,0.2,0.8,0.6,0.9,0.8c0.1,0.3-0.3,0.3-0.5,0.2
				c-0.1,0-0.2-0.1-0.2-0.2C92.6,25.9,92.6,26,92.4,25.9L92.4,25.9z M90.8,26.5c0.1-0.3,0.2-1.3,0.5-1.5c0,0.6-0.2,1.5,0.5,1.5
				c0.2,0,0.4-0.1,0.5-0.2c0.1,0.2,0.2,0.2,0.4,0.3c0.5,0.2,1.5,0.1,1.4-0.5c-0.1-0.5-1.5-0.9-1-1.5c0.1-0.1,0.3-0.2,0.5-0.1
				c0,0,0.2,0.3,0.4,0c0.1-0.1,0.2-0.4,0.1-0.5c-0.2-0.2-1.2,0-1.5,0.3c-0.3,0.3-0.2,0.7,0,1c-0.3,0.1-0.1,0-0.2,0.5
				c-0.1,0.2-0.2,0.4-0.4,0.4c-0.2-0.3-0.1-1-0.1-1.4c0-0.3-0.1-0.6-0.4-0.5c-0.2,0.1-0.5,0.8-0.6,1.2c0-0.3,0-1.3,0-1.5
				c0-0.2-0.4-0.3-0.5-0.2c0,0.1-0.1,1.9-0.1,2.1c0,0.2,0,0.5,0.1,0.6C90.3,26.5,90.6,26.5,90.8,26.5z"/>
			<path class="st1" d="M89,24.7c-0.5,0.1-0.6-0.3-0.7-0.8c-0.1-1.2,0.5-1.7,0.7-1.4c0.1,0.1,0,0.5,0,0.6C89,23.7,89,24.2,89,24.7
				L89,24.7z M89,25.2c0,0.4-0.2,0.8-0.4,1c-0.3,0.2-0.6,0.4-1.1,0.3c-0.5-0.1-0.6-0.6-0.5-0.8c0.1-0.1,0.2-0.2,0.3-0.4
				c0.3-0.7-0.8-0.6-0.8,0.4c0,1,0.7,1.3,1.6,1.2c1.6-0.1,1.5-1.5,1.5-2.8c0-0.5,0-0.9,0-1.4c0-0.9,0-0.7-0.6-0.7
				c-0.3,0-0.4,0-0.5,0.2C87.7,22.9,87.5,25.2,89,25.2z"/>
		</g>
		<path class="st1" d="M94.6,12h6.9c0.7,0,1.2,0.5,1.2,1.2v6.9c0,0.7-0.5,1.2-1.2,1.2h-6.9c-0.7,0-1.2-0.5-1.2-1.2v-6.9
			C93.4,12.5,93.9,12,94.6,12L94.6,12z M100.2,13c-0.2,0-0.4,0.2-0.4,0.4v1c0,0.2,0.2,0.4,0.4,0.4h1.1c0.2,0,0.4-0.2,0.4-0.4v-1
			c0-0.2-0.2-0.4-0.4-0.4H100.2L100.2,13z M101.7,15.9h-0.8c0.1,0.3,0.1,0.5,0.1,0.8c0,1.5-1.3,2.8-2.9,2.8c-1.6,0-2.9-1.3-2.9-2.8
			c0-0.3,0-0.5,0.1-0.8h-0.9v3.9c0,0.2,0.2,0.4,0.4,0.4h6.5c0.2,0,0.4-0.2,0.4-0.4V15.9L101.7,15.9z M98.1,14.8
			c-1,0-1.9,0.8-1.9,1.8s0.8,1.8,1.9,1.8c1,0,1.9-0.8,1.9-1.8S99.1,14.8,98.1,14.8z"/>
	</g>
</g>
<g>
	<path class="st0" d="M35.8,35.1c0.8,0,1.5-0.7,1.5-1.5V9.3c0-0.8-0.7-1.5-1.5-1.5H11.5c-0.8,0-1.5,0.7-1.5,1.5v24.3
		c0,0.8,0.7,1.5,1.5,1.5H35.8z"/>
	<path class="st2" d="M28.8,35.1V24.5h3.5l0.5-4.1h-4.1v-2.6c0-1.2,0.3-2,2-2l2.2,0v-3.7c-0.4-0.1-1.7-0.2-3.2-0.2
		c-3.1,0-5.3,1.9-5.3,5.4v3H21v4.1h3.6v10.6H28.8z"/>
</g>
<g>
	<path class="st3" d="M72.9,14.5c-0.8,0.4-1.6,0.6-2.5,0.7c0.9-0.5,1.6-1.4,1.9-2.5c-0.9,0.5-1.8,0.9-2.8,1.1
		c-0.8-0.9-2-1.4-3.2-1.4c-2.4,0-4.4,2-4.4,4.4c0,0.3,0,0.7,0.1,1c-3.7-0.2-6.9-1.9-9.1-4.6c-0.4,0.7-0.6,1.4-0.6,2.2
		c0,1.5,0.8,2.9,2,3.7c-0.7,0-1.4-0.2-2-0.6c0,0,0,0,0,0.1c0,2.1,1.5,3.9,3.6,4.3c-0.4,0.1-0.8,0.2-1.2,0.2c-0.3,0-0.6,0-0.8-0.1
		c0.6,1.8,2.2,3,4.1,3.1c-1.5,1.2-3.4,1.9-5.5,1.9c-0.4,0-0.7,0-1.1-0.1c2,1.3,4.3,2,6.8,2c8.2,0,12.6-6.8,12.6-12.6
		c0-0.2,0-0.4,0-0.6C71.5,16.2,72.3,15.4,72.9,14.5z"/>
</g>
</svg>
